<?xml version="1.0" encoding="utf-8"?>
<!-- Generator: Adobe Illustrator 21.1.0, SVG Export Plug-In . SVG Version: 6.00 Build 0)  -->
<svg version="1.1" id="Calque_1" xmlns="http://www.w3.org/2000/svg" xmlns:xlink="http://www.w3.org/1999/xlink" x="0px" y="0px"
	 viewBox="0 0 432 432" style="enable-background:new 0 0 432 432;" xml:space="preserve">
<style type="text/css">
	.st0{fill:#591C00;}
	.st1{fill:#999999;}
	.st2{fill:#FCC062;}
	.st3{fill:#DA7D81;}
	.st4{fill:#C1272D;}
	.st5{fill:#1A1A1A;}
	.st6{fill:#736357;}
	.st7{fill:#8D819B;}
	.st8{fill:#BF7F99;}
	.st9{fill:#881B30;}
	.st10{fill:#A58B66;}
	.st11{fill:#781F00;}
	.st12{fill:#852A00;}
	.st13{fill:#AD8C52;}
	.st14{fill:#859660;}
	.st15{fill:#D3AB99;}
	.st16{fill:#A12E37;}
	.st17{fill:#8F8279;}
	.st18{fill:#758295;}
	.st19{fill:#60373C;}
	.st20{fill:#EFD333;}
	.st21{fill:#CE74B4;}
	.st22{fill:#313E2B;}
	.st23{fill:#5A1700;}
	.st24{fill:#BC79A7;}
	.st25{fill:#877F9A;}
	.st26{fill:#CC8FC1;}
	.st27{fill:#333333;}
	.st28{fill:#C3CD84;}
	.st29{fill:#7E97A5;}
	.st30{fill:#627C55;}
	.st31{fill:#B3B3B3;}
	.st32{fill:#AD3642;}
	.st33{fill:#2A7893;}
	.st34{fill:#669AB4;}
	.st35{fill:#AF689C;}
	.st36{fill:#6EA892;}
	.st37{fill:#663D2C;}
	.st38{fill:#BBBA2A;}
	.st39{fill:#A09830;}
	.st40{fill:#799D7D;}
	.st41{fill:#C69C6D;}
	.st42{fill:#BC79AD;}
	.st43{fill:#BC8A70;}
	.st44{fill:#ADADAD;}
	.st45{fill:#606981;}
	.st46{fill:#4D4D4D;}
	.st47{fill:#70BEB2;}
	.st48{fill:#11937F;}
	.st49{fill:#C78287;}
	.st50{fill:#944F54;}
	.st51{fill:#534741;}
	.st52{fill:#D6A354;}
	.st53{fill:#E7AC22;}
	.st54{fill:#89BBA2;}
	.st55{fill:#BF4D28;}
	.st56{fill:#88382D;}
	.st57{fill:#D86C62;}
	.st58{fill:#B57C53;}
	.st59{fill:#E6C34F;}
	.st60{fill:#A0392B;}
	.st61{fill:#FFFFFF;}
	.st62{fill:#AD7460;}
	.st63{fill:#939E9E;}
	.st64{fill:#2E4DA7;}
	.st65{fill:#39B54A;}
	.st66{fill:#D1417E;}
	.st67{fill:#FD8402;}
	.st68{fill:#727D6D;}
	.st69{fill:#BAAC91;}
	.st70{fill:#3F4650;}
	.st71{fill:#653F34;}
	.st72{fill:#3F3C35;}
	.st73{fill:#A84A5C;}
	.st74{fill:#3B5347;}
	.st75{fill:#854B16;}
	.st76{fill:#5B6F69;}
	.st77{fill:#767094;}
	.st78{fill:#08B19A;}
	.st79{fill:#AAB1A7;}
	.st80{fill:#4C5839;}
	.st81{fill:#6E2521;}
	.st82{fill:#ED6184;}
	.st83{fill:#A4B449;}
	.st84{fill:#EB7466;}
</style>
<g>
	<g>
		<path class="st60" d="M294.7,288.5c1.3,0.2,2.2,0.4,3.1,0.6c6.8,1.5,11.6,5.5,14.2,11.9c2.2,5.5,2.9,11.2,2.4,17.1
			c-0.3,3.6-1,7.2-2.2,10.6c-1.1,2.8-2.5,5.5-4.5,7.8c-4.4,5.1-9.6,9.1-16.3,10.8c-5.2,1.3-10.4,2.6-15.9,2.3
			c-1.7-0.1-3.4-0.2-5-0.6c-3.2-0.7-4.6-2.5-4.9-5.8c-1.8-15.8-2.2-31.6-2.3-47.4c-0.1-13.8-0.2-27.6-0.3-41.4c0-4.4,0.3-8.9,1-13.2
			c0.3-1.9,1.2-3.5,2.7-4.7c7-5.2,14.7-9,23.4-10c12.2-1.3,20.9,5.8,23.7,16.6c1.7,6.5,1,13-1.2,19.2c-3.4,9.9-9.1,18.3-17,25.2
			C295.4,287.8,295.2,288,294.7,288.5z M282.9,236.3c-0.2,16.7,0.6,33.2,1.3,49.8c2-0.8,3.7-1.9,5.3-3c6.3-4.6,10.5-10.8,13.5-17.8
			c2-4.7,3.2-9.5,3-14.7c-0.1-3.7-1.3-7.1-3.3-10.2c-1.7-2.5-4-4.1-7-4.8C291.4,234.4,287.1,235.3,282.9,236.3z M285.6,339.4
			c1.2-0.3,2.2-0.5,3.1-0.9c3.1-1.2,5.9-2.8,8.5-4.9c4.3-3.5,7.2-7.9,8.1-13.5c0.5-3.2,0.6-6.3,0.5-9.5c-0.1-2.7-0.7-5.2-1.7-7.6
			c-1.5-3.7-4.3-6-8.1-7.1c-3.1-0.8-6.2-0.7-9.3-0.5c-0.6,0.1-1.3,0.2-1.9,0.3C285,310.3,285.3,324.7,285.6,339.4z"/>
		<path class="st60" d="M343.1,211.9c0,6.2,0.1,12.2,0,18.2c-0.3,11.8-0.7,23.5-1,35.3c-0.2,6.8-0.4,13.7-0.6,20.5
			c-0.1,3.8-0.2,7.6-0.3,11.3c0,0.6,0,1.2,0,1.8c0.5,0,0.8,0.1,1.1,0.1c4.9,0.2,9.7,0.3,14.6,0.5c2.5,0.1,5,0.1,7.6,0.2
			c0.6,0,1.2,0,1.8,0.1c1.9,0.3,3.3,1.8,3.5,3.7c0.2,1.7-0.9,3.5-2.6,4.2c-0.6,0.2-1.3,0.3-1.9,0.4c-7.2,0.5-14.3,1-21.5,1.5
			c-0.8,0.1-1.6,0.1-2.6,0.2c0,10.1,0,20.2,0,30.4c0.7,0,1.6,0,2.4,0c5.6-0.1,11.3-0.3,16.9-0.4c0.7,0,1.4,0,2.1,0.1
			c1.8,0.4,3,1.8,3.1,3.6c0.1,1.8-1.1,3.4-2.9,3.9c-0.6,0.2-1.3,0.2-1.9,0.2c-7,0.2-13.9,0.4-20.9,0.6c-3.4,0.1-6.7-0.4-9.9-1.1
			c-2.1-0.4-3.1-1.8-3.6-3.8c-0.8-3.4-1-6.8-1.1-10.3c-0.5-19-0.7-38-0.4-57c0.2-13.4,0-26.8,0.1-40.3c0-6.1,0.3-12.3,0.5-18.4
			c0.1-2.9,1.4-5.2,3.6-6.9c1.4-1.2,3-2.2,4.6-3.1c10.2-5.5,20.4-11,31.5-14.7c2.3-0.8,4.5-1.8,6.7-2.7c0.5-0.2,1-0.5,1.5-0.6
			c1.6-0.5,3.3,0.3,4.1,1.7c0.8,1.5,0.4,3.2-0.9,4.3c-0.6,0.5-1.4,0.9-2.2,1.2c-8.7,3.6-17.4,7.3-25.6,11.9
			C347,209.7,345.1,210.8,343.1,211.9z"/>
		<path class="st60" d="M185.7,322.9c0,0.8,0,1.4,0,2c0,7.2,0,14.5,0,21.7c0,1.5-0.1,3.1-0.3,4.6c-0.2,2.1-1.2,3.1-3.2,3.4
			c-3,0.4-6,0.1-8.9-0.8c-2.1-0.7-3.4-2.2-3.7-4.4c-0.3-2.1-0.5-4.1-0.6-6.2c-0.3-6.1-0.5-12.3-0.7-18.4c-0.3-8.6-0.6-17.2-0.9-25.8
			c-0.1-2.5,0.1-4.9,0.3-7.4c0.2-2.8,1.3-5,3.5-6.8c4.5-3.6,9.1-7.1,14.3-9.5c2.1-1,4.1-2.3,6.2-3.4c4.7-2.5,9.6-4.5,14.9-5.5
			c2.8-0.5,5.5-0.7,8.3,0c3,0.7,5.4,2.4,7.1,5c1.5,2.3,2.5,4.9,2.6,7.7c0.5,9.6-2.6,18-9.4,24.9c-4.6,4.7-10,8.1-15.6,11.5
			c-0.8,0.5-1.7,1-2.6,1.5c0.2,0.2,0.3,0.3,0.4,0.3c5.9,2.3,9.1,6.9,11.1,12.7c0.5,1.4,0.8,3,1.3,4.4c0.7,1.9,1.5,3.9,2.4,5.8
			c0.4,0.9,1.1,1.6,1.9,2.3c1,0.9,2.2,1.1,3.5,0.7c0.6-0.2,1.3-0.3,1.9-0.3c1.5,0.1,2.6,1,3,2.4c0.5,1.6,0.1,2.9-1.2,4
			c-1.5,1.2-3.2,1.7-5.1,1.4c-5.2-0.6-9.6-2.8-12.1-7.6c-1.2-2.3-2.2-4.6-3.1-7c-0.7-1.8-1.3-3.6-1.8-5.4c-0.9-3.3-3.2-5.2-6.3-6.1
			C190.5,323.6,188.2,323.3,185.7,322.9z M184.5,314c0.2,0,0.3,0.1,0.4,0.1c0.5-0.2,0.9-0.3,1.4-0.5c6.6-2.8,12.8-6.4,18.7-10.5
			c1.8-1.3,3.5-2.7,5.1-4.2c4.2-3.9,6.8-8.7,7.4-14.4c0.3-2.6,0.2-5.1-0.8-7.6c-1-2.5-2.9-3.8-5.6-3.7c-2.1,0-4.1,0.4-6.1,1
			c-6.9,2-13.1,5.5-19.2,9.2c-0.6,0.4-0.8,0.8-0.8,1.5c-0.1,2.6-0.2,5.1-0.3,7.7c-0.1,6.9-0.2,13.8-0.3,20.7
			C184.4,313.5,184.5,313.7,184.5,314z"/>
		<path class="st60" d="M230.8,299c0-12.2,0-24.4,0-36.6c0-1.8,0.2-3.6,0.2-5.4c-0.1-3.2,1.6-5.3,4.3-6.6c3.4-1.5,7-2.2,10.7-2
			c2.2,0.1,3.7,1.5,4.3,3.5c0.5,1.5,1,3.2,1,4.8c0.1,5.7,0,11.4-0.2,17.1c-0.1,4.4-0.4,8.9-0.5,13.3c-0.3,10.6-0.6,21.1-0.8,31.7
			c-0.1,5.3,0.2,10.5,0.2,15.8c0,3.6-0.2,7.1-0.3,10.7c0,0.7-0.2,1.3-0.3,1.9c-0.3,1.5-1.2,2.4-2.7,2.9c-0.6,0.2-1.2,0.3-1.8,0.4
			c-2.9,0.4-5.8,0.5-8.7-0.1c-2.7-0.5-3.7-1.5-4.1-4.2c-0.3-1.7-0.5-3.5-0.5-5.2c-0.3-6.8-0.7-13.6-0.8-20.4
			C230.7,313.4,230.8,306.2,230.8,299C230.8,299,230.8,299,230.8,299z"/>
		<path class="st60" d="M117.4,319.7c-0.8,0.3-1.3,0.5-1.8,0.8c-6.6,3.1-13.2,6.3-19.9,9.4c-1.3,0.6-2.6,1.1-4,1.4
			c-2,0.4-3.8-0.5-4.7-2.2c-0.8-1.6-0.5-3.6,1-5c0.7-0.7,1.6-1.3,2.5-1.8c4.1-1.9,8.1-3.8,12.2-5.6c13.8-6.4,27.6-12.8,41.4-19.1
			c2-0.9,4.1-1.9,6.1-2.8c0.9-0.4,2-0.7,3-0.7c1.7-0.1,2.9,0.8,3.8,2.2c0.8,1.2,0.7,2.5-0.1,3.7c-0.8,1.2-1.9,2-3.1,2.6
			c-5.5,2.8-10.9,5.5-16.4,8.2c-1.2,0.6-1.7,1.3-1.7,2.6c0,10.5-0.1,21-0.2,31.5c0,2.2,0,4.5-0.2,6.7c-0.2,2.4-1,3.4-3.3,3.8
			c-2.8,0.6-5.7,0.5-8.5-0.1c-2.5-0.6-4-2.1-4.3-4.6c-0.5-4.1-1.2-8.1-1.4-12.2c-0.3-5.7-0.3-11.4-0.5-17.1
			C117.4,321,117.4,320.5,117.4,319.7z"/>
	</g>
	<g>
		<g>
			<path class="st60" d="M148.8,280.6c-0.2-2.9,0-5.6,0.3-8.3c1-6.8,3.7-12.9,8.2-18c4.8-5.4,10.7-8.8,17.7-10.2
				c7.2-1.5,14.3-1,21.1,2c3.1,1.4,5.9,3.3,8.3,5.7c0.5,0.6,1,1.2,1.6,1.9C187.3,263.3,168.1,271.9,148.8,280.6z"/>
			<path class="st60" d="M338.1,155.8c1,0.1,1.9,0.2,2.7,0.3c3.7,0.5,7.4,0.9,11.2,1.4c3.8,0.5,7.6,1.3,11.3,2.6
				c1.8,0.6,3.5,1.4,5,2.6c0.8,0.7,1.5,1.4,2.1,2.2c0.8,1.1,0.9,2.3,0.1,3.5c-0.5,0.8-1.2,1.6-1.9,2.3c-2.2,2.2-4.7,3.8-7.4,5.3
				c-1.6,0.9-3.2,1.6-4.8,2.5c-0.6,0.3-1.1,0.4-1.7,0.3c-1.6-0.3-3.2-0.7-4.7-1.4c-2.9-1.4-5.4-3.3-7.7-5.6
				c-2.3-2.4-3.5-5.3-4.1-8.5C337.7,160.9,337.7,158.5,338.1,155.8z"/>
			<path class="st60" d="M146.3,99.1c13.7,2.8,27.2,5.5,40.9,8.3c-0.4,0.5-0.6,0.9-0.8,1.2c-3.6,4.8-8.4,7.5-14.2,8.7
				c-6.5,1.3-12.3-0.2-17.6-3.8c-3.1-2.1-5.2-5.1-6.8-8.5c-0.6-1.4-1.2-2.9-1.4-4.4C146.4,100.1,146.3,99.7,146.3,99.1z"/>
		</g>
		<g>
			<path class="st52" d="M127.6,290.5c-0.6,0.3-1.2,0.5-1.8,0.8c-8.2,3.4-16.3,6.9-24.5,10.3c-2.8,1.2-5.7,2-8.8,2.2
				c-2.9,0.2-5.4-0.6-7.6-2.6c-1.4-1.3-2.4-2.9-3.3-4.5c-1.8-3.6-3.1-7.4-4.2-11.3c-4.3-15.4-8.4-30.9-11.8-46.6
				c-2-9.3-4.7-18.4-7.3-27.6c-1.3-4.6-2.5-9.2-3.1-13.9c-0.5-3.6-0.5-7.3-0.3-10.9c0.4-6.6,0.9-13.2,1.3-19.8
				c0.4-6.4,0.5-12.8-0.3-19.1c-0.6-5.1-1.3-10.1-1.7-15.2c-1.5-19.2,3.9-36.6,14.7-52.4c0.7-1.1,1.7-2,2.7-2.8
				c0.9-0.8,2.1-1.1,3.4-0.8c4.1,1.1,8.2,2.2,12,4.1c6.5,3.2,13.2,6.1,20.1,8.4c0.5,0.2,0.9,0.5,1.2,0.9c1.9,2.5,2.6,5.3,3,8.4
				c0.5,3.7-0.1,7.4-0.8,11.1c-1.2,6.1-3.2,11.9-5,17.7c-1.9,5.9-3.8,11.8-5,17.9c-1.1,5.5-2.1,11.1-2.2,16.7
				c-0.1,5,0.5,10,1.5,14.9c1.3,6.3,3.5,12.3,5.8,18.3c2.5,6.5,4.7,13,6.2,19.7c1.2,5.3,1.9,10.6,2.3,16c0.6,6.8,0.5,13.6,0.5,20.4
				c0,4,0.1,8.1,0.7,12.1c0.6,4,1.7,7.8,3.7,11.3c1.2,2.1,2.6,4.2,3.9,6.4c1.3,2.2,2.6,4.4,3.8,6.7
				C127,288.1,127.5,289.2,127.6,290.5z M94.2,198.3c-0.1,0.6-0.2,1.5-0.3,2.4c-1,4.6-3.4,8.2-7.7,10.5c-0.7,0.4-1.5,0.8-2.2,1.3
				c-1,0.6-1.3,1.4-0.9,2.2c0.4,0.7,1.2,0.8,2.2,0.4c0.1,0,0.2-0.1,0.3-0.2c0.8-0.4,1.7-0.9,2.5-1.4c6.4-3.8,9.2-9.6,8.9-16.9
				c-0.1-3.4-1.3-6.5-2.7-9.5c-0.7-1.4-1.4-2.9-2.1-4.3c-1.8-3.8-2.6-7.9-2.7-12.1c-0.1-2.4,0.2-4.9,0.8-7.2c0.1-0.5,0.2-1-0.3-1.3
				c-0.4-0.3-1-0.1-1.5,0.4c-0.4,0.5-0.7,1-0.9,1.5c-0.6,1.5-0.9,3.1-1,4.7c-0.3,6,0.9,11.6,3.7,16.9c0.8,1.5,1.5,3.1,2.2,4.7
				C93.5,192.8,94.1,195.3,94.2,198.3z M101,272.7c1.3,0,1.9-1.2,1.3-2.1c-0.2-0.3-0.5-0.6-0.9-0.8c-0.8-0.5-1.6-1-2.4-1.5
				c-2.4-1.5-4.2-3.6-4.9-6.4c-0.6-2.1-1.1-4.3-1.4-6.4c-0.7-5.2-3-9.4-7.3-12.4c-1-0.7-1.9-1.5-2.8-2.2c-1.6-1.3-3-2.8-4-4.6
				c-1.3-2.4-2.4-4.9-3.1-7.6c-0.1-0.3-0.2-0.7-0.3-1c-0.4-0.7-1.3-0.8-1.6,0c-0.3,0.6-0.4,1.4-0.4,2.1c0.1,0.9,0.3,1.8,0.5,2.7
				c1.5,4.7,3.9,8.6,7.9,11.6c1.4,1,2.7,2.1,4,3.3c1.8,1.6,2.9,3.6,3.5,5.9c0.2,0.8,0.3,1.6,0.5,2.3c0.6,2.5,1,5,1.7,7.5
				c0.8,2.8,2.3,5.1,4.6,6.8c1.3,1,2.8,1.8,4.3,2.7C100.4,272.5,100.8,272.6,101,272.7z M70.2,134c0,0-0.1,0-0.1,0
				c0.1,1.8,0,3.7,0.2,5.5c0.2,2.4,0.9,4.8,2.1,7c0.8,1.4,1.8,2.6,3.2,3.5c0.5,0.4,1.1,0.6,1.7,0.7c0.3,0.1,0.8-0.2,0.9-0.4
				c0.1-0.2,0-0.7-0.1-1c-0.2-0.3-0.5-0.6-0.7-0.8c-2.4-2.2-3.7-4.9-4.2-8.1c-0.5-2.7-0.2-5.3,0-8c0.2-2.3-0.2-4.4-1.4-6.3
				c-0.2-0.4-0.4-0.8-0.7-1.1c-2.7-4.3-3.5-9-2.6-14c0.1-0.9,0.3-1.8,0.5-2.7c0.1-0.7-0.3-1.2-0.8-1.4c-0.6-0.2-1.2,0-1.5,0.6
				c-0.1,0.2-0.2,0.4-0.2,0.6c-0.6,2.2-1,4.5-0.9,6.7c0.2,4,1,7.9,3.2,11.3c1.5,2.3,2.1,4.8,1.8,7.5C70.2,133.6,70.2,133.8,70.2,134
				z M96.7,107.4c0,0.7-0.1,1.4,0,2.2c0.1,0.7,0.6,1.2,1.2,1.3c0.6,0,1.2-0.4,1.4-1.1c0.1-0.3,0.2-0.6,0.2-0.9
				c0.1-2.6-0.1-5.1-0.7-7.6c-1.5-5.8-5.3-9.2-11-9.9c-1-0.1-2,0-3,0.2c-0.9,0.1-1.4,0.7-1.3,1.3c0.1,0.6,0.6,0.9,1.5,1
				c0.4,0,0.9,0,1.3,0c4.6,0.3,7.9,2.7,9.3,7.1C96.3,103,96.6,105.2,96.7,107.4z M98.6,293.3c3.3-0.1,6.1-0.6,8.9-1.7
				c0.3-0.1,0.7-0.3,0.9-0.5c0.6-0.4,0.8-1,0.6-1.6c-0.2-0.5-0.8-0.9-1.4-0.9c-0.4,0-0.8,0.1-1.2,0.2c-0.9,0.3-1.7,0.6-2.6,0.8
				c-5.1,1.3-9.7,0.7-13.9-2.8c-0.2-0.2-0.5-0.3-0.7-0.5c-0.4-0.3-0.8-0.3-1.2,0c-0.4,0.3-0.5,0.7-0.4,1.2c0.1,0.4,0.3,0.9,0.6,1.2
				c0.8,0.8,1.6,1.6,2.5,2.2C93.2,292.5,96,293.1,98.6,293.3z"/>
			<g>
				<path class="st52" d="M146.4,281.9c-5.4,2.5-10.7,5-16,7.5c-0.1-0.2-0.3-0.3-0.3-0.4c-0.7-2.6-2-4.9-3.4-7.1
					c-1.4-2.3-2.8-4.6-4.2-6.8c-3-4.7-4.7-9.8-5-15.3c-0.2-3.8-0.3-7.7-0.4-11.5c-0.1-4.1,0-8.2-0.1-12.3
					c-0.4-12.3-2.5-24.3-6.8-35.9c-1.7-4.6-3.4-9.1-5.1-13.7c-2.2-6.4-3.7-12.9-4.2-19.6c-0.4-5.4,0.2-10.8,1-16.1
					c1.3-8.1,3.7-15.9,6.2-23.7c1.7-5.3,3.4-10.6,4.6-16c0.8-3.7,1.4-7.4,1.1-11.2c-0.2-3.1-0.9-6-2.3-8.7c-0.1-0.1-0.1-0.3-0.3-0.6
					c10.7,3.4,21.4,5.9,32.1,8.3c-0.7,6.6,5.3,15.4,10.7,18.4c3.1,1.7,6.3,3.1,9.8,3.6c8.5,1.2,19.5-1.9,25.5-11.2
					c0.2-0.4,0.5-0.7,0.8-1.2c1.9,0.5,3.8,0.9,5.7,1.4c9.8,2.3,19.1,6,28.4,9.8c5.3,2.2,10.7,4.5,16.1,6.6
					c6.3,2.4,12.9,4.1,19.5,5.9c15.6,4.3,31,9.3,46,15.5c8.7,3.6,17.9,6,27.2,7.6c0.8,0.1,1.6,0.3,2.4,0.5c-0.1,0.5-0.1,0.8-0.2,1.2
					c-0.6,5.4,0.1,10.5,3.1,15.1c2.8,4.2,6.8,6.9,11.3,8.9c0.3,0.1,0.6,0.2,1.2,0.5c-0.7,0.3-1.3,0.6-1.8,0.8
					c-13.4,5.7-26.7,11.7-39.8,18.1c-13.2,6.5-26.2,13.5-39.1,20.7c-19.3,10.8-38.9,20.9-58.8,30.5c-0.9,0.4-1.8,0.9-2.8,1.3
					c-1-1.8-2.5-3.3-4.1-4.6c-4.1-3.4-8.7-5.6-13.9-6.7c-11.2-2.2-21.6-0.5-30.7,6.6c-7.5,5.8-12,13.4-13.5,22.8
					C145.9,274.3,145.8,278,146.4,281.9z M192.3,207.5c-0.1,0-0.2,0-0.3,0c-0.2-0.7-0.5-1.3-0.6-2c-0.8-3.8-1.4-7.6-1.4-11.4
					c-0.1-8.7,0.3-17.3,1.1-26c0.2-2.5,0.3-5,0.3-7.5c0-1.2-0.3-2.3-1-3.3c-1.2-1.8-3.4-2.3-5.1-1c-0.7,0.5-1.3,1.2-1.8,1.9
					c-0.5,0.8-0.8,1.7-1,2.5c-0.4,1.9-0.7,3.9-0.9,5.8c-0.1,0.6-0.2,1-0.7,1.4c-1.7,1.4-3.4,2.8-5.1,4.2c-0.2,0.1-0.4,0.2-0.7,0.4
					c0-0.5,0-0.8,0-1.2c0.1-2.4,0.2-4.9,0.2-7.3c-0.1-4.9-0.9-9.7-2.6-14.3c-1.8-5.1-4.7-9.3-9.2-12.4c-4-2.8-8.4-3.8-13.2-2.8
					c-5.9,1.2-10.4,4.5-14,9.3c-2,2.7-3.5,5.7-4.6,8.9c-0.1,0.3-0.2,0.5-0.4,0.8c-0.2-0.5-0.2-1-0.2-1.5c0-4.4,0-8.9,0-13.3
					c0-1.2-0.2-2.4-0.6-3.5c-0.6-1.8-2-2.8-3.9-2.9c-1.9,0-3.2,0.9-4,2.6c-0.3,0.6-0.5,1.3-0.6,1.9c-0.2,1.3-0.3,2.5-0.3,3.8
					c-0.1,6.7-0.2,13.3-0.3,20c-0.2,11,0,22,0.6,33c0.4,8,1.1,16,2.1,24c1.2,9.7,3,19.2,5.9,28.5c0.7,2.4,1.6,4.8,2.5,7.2
					c0.7,1.8,2,3,3.7,3.7c1.7,0.7,3.4,0,4.3-1.5c0.8-1.5,1.1-3.1,0.7-4.7c-0.2-0.7-0.4-1.3-0.5-2c-1.5-5.5-3.1-11-4.4-16.6
					c-2.4-10.7-3.5-21.6-4.3-32.5c0-0.2,0.1-0.3,0.1-0.6c0.3,0.4,0.5,0.6,0.7,0.9c1.8,2.2,4,3.8,6.6,4.7c3.4,1.3,6.9,1.6,10.5,1
					c5.9-1.1,11-3.6,15-8.1c2.4-2.8,4.3-5.9,5.8-9.2c1.5-3.4,2.7-6.9,3.5-10.6c0.1-0.5,0.1-1.1,0.7-1.4c2.1-1.1,3.8-2.7,5.4-4.3
					c0.2-0.2,0.4-0.3,0.7-0.5c0,0.5,0,0.8-0.1,1.1c-0.5,6.6-0.8,13.2-0.7,19.8c0,3.3,0.2,6.6,0.8,9.9c0.5,2.8,1.5,5.5,3.4,7.7
					c1.2,1.4,2.6,2.6,4.4,3.1c2.3,0.7,4.4,0.1,5.8-1.9c0.7-1,1.3-2.1,1.6-3.3c0.8-2.8,1.5-5.6,1.9-8.4c1.1-6.5,1.9-13,2.9-19.4
					c0.9-5.8,2.1-11.5,3.8-17.1c1.4-4.6,3.2-9,5.8-13c1.3-2,2.8-3.9,4.7-5.4c1.1-0.9,2.4-1.6,3.8-1.9c2.3-0.4,3.6,0.5,3.9,2.9
					c0.4,2.6,0,5.2-0.9,7.7c-1.5,4.2-3.7,7.9-6.4,11.5c-1,1.4-2.1,2.7-3.1,4.1c-0.8,1-1.4,2.1-1.7,3.4c-1,3.7,0.6,6.8,4.2,8.1
					c0.5,0.2,1,0.3,1.5,0.5c0.8,0.4,1.6,0.7,2.3,1.2c0.8,0.5,1.5,1.1,2,1.9c-0.2,0.4-0.5,0.8-0.7,1.2c-2.1,3.5-4.2,7.1-6.3,10.6
					c-3.5,6.1-6,12.6-6.9,19.6c-0.6,4.3-0.1,8.4,1.8,12.2c3.1,6.2,10.1,7.9,15.7,3.7c2-1.5,3.5-3.3,4.7-5.4c2.5-4.3,3.9-9,4.3-14
					c0.8-10.1-1.5-19.5-7-28.1c-0.3-0.5-0.6-0.9-0.9-1.4c0.2-0.3,0.3-0.6,0.5-0.9c4.1-6.5,8.3-12.9,12.8-19.1
					c2.5-3.5,5.2-6.8,8.2-9.9c2.9-2.9,6.2-5,10-6.4c1-0.3,2-0.6,3-0.6c1.1-0.1,2,0.6,2.5,1.6c0.5,1.1,0.7,2.2,0.3,3.4
					c-0.6,1.4-1.1,2.8-1.9,4c-1.3,1.8-2.7,3.6-4.1,5.3c-2.2,2.5-4.5,4.8-6.7,7.2c-0.7,0.8-1.5,1.7-2,2.7c-1.4,2.4-1,4.6,0.9,6.5
					c0.6,0.6,1.3,1.1,1.9,1.7c2.2,2,4.1,4.2,5.4,7c-0.3,0.4-0.5,0.7-0.8,1.1c-3.4,4.5-6.1,9.4-8.2,14.6c-1.3,3.4-2.2,6.8-2.1,10.5
					c0.1,2.2,0.5,4.3,1.4,6.3c1.6,3.4,4.7,4.9,8.3,4.3c1.9-0.3,3.5-1.2,4.8-2.6c1-1.1,2.1-2.4,2.8-3.7c2.8-5.1,3.8-10.7,3.2-16.4
					c-0.3-3.1-1.2-6.1-2.4-9c-0.8-1.9-1.6-3.7-2.4-5.7c3.9-4.4,8.5-8.1,13.3-11.6c0.1,0.2,0.1,0.3,0.2,0.3c0,0.5,0,1,0,1.4
					c0.1,4.7,0.7,9.3,2.5,13.7c1,2.4,2.3,4.6,4.2,6.5c1,1,2.2,1.9,3.5,2.4c2.9,1.1,5.6,0.5,7.6-1.8c0.8-0.9,1.4-1.9,2-3
					c1.4-2.5,2.3-5.3,3.1-8c0.2-0.6,0.4-1.1,0.6-1.8c0.3,0.4,0.5,0.7,0.8,0.9c0.9,0.9,1.7,1.9,2.8,2.6c2.3,1.7,4.9,2.4,7.8,2
					c2-0.3,3.6-1.3,5-2.6c1.7-1.5,3-3.3,4.3-5.1c2.8-4.1,5.5-8.3,8.2-12.4c0.4-0.7,0.8-1.4,1.2-2.1c0.3-0.6,0.1-1.2-0.4-1.6
					c-0.5-0.4-1.1-0.4-1.7,0c-0.2,0.2-0.4,0.4-0.6,0.6c-0.8,1-1.5,1.9-2.2,3c-1.4,2-2.7,4.1-4.1,6c-1.6,2.2-3.3,4.4-5,6.4
					c-0.8,0.9-1.8,1.8-2.8,2.4c-1.9,1.2-3.8,0.8-4.9-1.2c-0.5-0.8-0.9-1.7-1-2.7c-0.4-2.6-0.8-5.3-1-8c-0.2-2.7-0.2-5.4-0.3-8.1
					c-0.1-2-0.3-3.9-1.1-5.7c-1.1-2.4-3.5-2.9-5.3-1c-0.7,0.7-1.1,1.6-1.7,2.5c-0.2,0.3-0.3,0.6-0.5,1c-0.2-0.1-0.3-0.2-0.4-0.3
					c-1-0.9-2-1.8-3.1-2.6c-3.7-3-10.5-2.1-13.4,2.2c-1.7,2.5-2.9,5.1-3.3,8c-0.2,1.3-0.8,2-1.8,2.7c-5,3.3-9.5,7.2-13.6,11.5
					c-0.1,0.1-0.2,0.2-0.3,0.3c-1.8-2.3-3.6-4.6-5.4-6.9c0-0.1,0.1-0.1,0.1-0.2c0.6-0.4,1.2-0.8,1.8-1.2c4.1-2.8,7.8-6,10.7-10
					c1.4-1.9,2.5-4,3.2-6.3c0.7-2,0.9-4.1,0.6-6.3c-0.8-5.3-6.2-10.4-12.6-8.6c-4.1,1.1-7.6,3.3-10.7,6.1c-2.3,2.1-4.4,4.4-6.3,6.9
					c-6,7.8-11.4,15.9-16.7,24.1c-0.2,0.4-0.5,0.7-0.7,1.1c-1.6-1.2-3-2.3-4.6-3.5c1.3-1.7,2.7-3.4,4-5.1c2.7-3.5,5.1-7.2,7-11.3
					c1.2-2.7,2.2-5.5,2.6-8.4c0.4-2.8,0.4-5.5-0.5-8.2c-1.6-4.8-6.3-7.5-11.2-6.7c-2.4,0.4-4.5,1.4-6.4,2.9
					c-1.9,1.4-3.4,3.2-4.7,5.1c-2.8,3.9-4.7,8.3-6.3,12.9c-2.6,7.6-4.1,15.4-5.3,23.3c-0.9,5.9-1.9,11.8-2.9,17.7
					c-0.4,2.3-1,4.5-1.9,6.7C193.2,206,192.7,206.7,192.3,207.5z M195.2,142.2c-0.1-2.8-1.2-5-3.4-6.5c-3.3-2.2-7.4-1.3-9.5,2
					c-1.2,2-1.6,4.1-1.2,6.4c0.8,4,4.5,6.5,8.3,5.5c1.8-0.5,3.5-1.1,4.5-2.9C194.7,145.3,195.1,143.8,195.2,142.2z"/>
				<path class="st52" d="M164.4,176.6c-1.2,0.1-2.4,0.3-3.5,0.4c-4.1,0.3-8.2,0.6-12.3,1c-3.3,0.3-6.5,1-9.6,2.1
					c-2.8,1-5.2,2.5-7.2,4.8c-0.1,0.1-0.2,0.2-0.5,0.4c-0.1-0.4-0.1-0.7-0.1-1c-0.1-4.5-0.3-8.9-0.2-13.4c0-1.8,0.5-3.6,0.9-5.4
					c0.9-4.3,2.2-8.6,4-12.6c1.1-2.3,2.3-4.5,4-6.4c2.6-2.9,5.8-4.9,9.7-5.5c3.2-0.5,6,0.2,8.4,2.5c2.7,2.6,4.3,5.8,5.6,9.3
					c1.9,5.2,2.3,10.7,2,16.2c-0.1,2.2-0.5,4.4-0.8,6.5C164.7,175.8,164.6,176.1,164.4,176.6z"/>
				<path class="st52" d="M163.5,180c-0.1,0.4-0.2,0.7-0.3,1c-0.5,1.2-0.9,2.4-1.4,3.5c-2.4,5.7-6.6,9.6-11.9,12.5
					c-3,1.6-6.2,2.3-9.6,1.4c-3.3-0.9-5.2-3.2-6.1-6.5c-0.3-1.2-0.1-2.4,0.6-3.4c1.1-1.7,2.7-2.9,4.4-3.8c2.5-1.3,5.1-2.1,7.8-2.6
					c4.2-0.9,8.5-1.2,12.8-1.7C160.9,180.2,162.1,180.1,163.5,180z"/>
				<path class="st52" d="M223.1,186.9c1,2,1.4,3.9,1.6,5.8c0.7,8,0.5,15.9-1.4,23.7c-0.5,2-1.3,4-2.1,6c-0.5,1.3-1.4,2.3-2.5,3.2
					c-1.5,1.2-3.2,1.1-4.5-0.2c-1.6-1.6-2.5-3.6-2.8-5.8c-0.5-3.5-0.2-6.9,0.9-10.3c1.4-4.7,3.5-9.1,5.8-13.4c1.4-2.7,3-5.3,4.5-7.9
					C222.6,187.6,222.8,187.4,223.1,186.9z"/>
				<path class="st52" d="M284.1,172.2c-0.1-3.7,0.1-6.2,0.6-8.6c0.1-0.5,0.2-0.9,0.3-1.4c0.5-2,3.1-3.2,5-2.3
					c1.9,0.9,3.4,2.2,4.7,3.8c0.2,0.3,0.2,0.8,0.2,1.2c-0.1,2.8-0.1,5.7,0.3,8.5c0.2,1.5,0.7,2.9,1,4.3c0.1,0.4,0.2,1,0.1,1.4
					c-0.8,2.9-1.8,5.8-3.2,8.5c-0.6,1.1-1.5,2.2-2.2,3.2c-0.2,0.3-0.5,0.4-0.7,0.6c-0.8,0.6-1.1,0.6-1.7-0.3
					c-1.1-1.6-1.8-3.4-2.4-5.2C284.7,181.1,284.1,176.1,284.1,172.2z"/>
				<path class="st52" d="M258,188.6c0.2,1.1,0.4,2.1,0.6,3.1c0.6,4.4,0,8.7-1.1,12.9c-0.7,2.9-1.8,5.6-3.3,8.2
					c-0.3,0.5-0.6,1-1,1.3c-0.8,0.8-1.3,0.8-1.9-0.1c-0.5-0.7-0.8-1.5-1.1-2.4c-0.7-2.4-0.6-4.8-0.1-7.2c1.1-5.2,3.5-9.9,6.5-14.3
					c0.3-0.5,0.7-1,1.1-1.4C257.6,188.7,257.7,188.7,258,188.6z"/>
			</g>
		</g>
	</g>
</g>
</svg>
