<svg id="evtf4hk5r8rf1" xmlns="http://www.w3.org/2000/svg" xmlns:xlink="http://www.w3.org/1999/xlink" viewBox="0 0 358.685000 358.685000" shape-rendering="geometricPrecision" text-rendering="geometricPrecision">
	<g id="evtf4hk5r8rf2">
		<g id="evtf4hk5r8rf3">
			<g id="evtf4hk5r8rf4">
				<g id="evtf4hk5r8rf5_tr" transform="translate(179.342500,179.342500) rotate(0)">
					<path id="evtf4hk5r8rf5" d="M282.531000,0L282.531000,10.809000L76.135000,10.809000L76.135000,0L34.359000,0L34.359000,176.289000L76.134000,176.289000L76.134000,156.705000L155.911000,156.705000L155.911000,358.685000L199.143000,358.685000L199.143000,156.705000L282.538000,156.705000L282.538000,176.289000L324.325000,176.289000L324.325000,0L282.531000,0ZM70.730000,10.814000L70.730000,156.710000L70.730000,170.897000L39.758000,170.897000L39.758000,5.404000L70.730000,5.404000L70.730000,10.814000ZM216.593000,40.313000L178.250000,76.012000L200.807000,77.273000C202.037000,77.336000,203.124000,78.134000,203.538000,79.327000C203.940000,80.501000,203.623000,81.807000,202.674000,82.647000L147.757000,131.772000C147.205000,132.268000,146.472000,132.553000,145.703000,132.553000C144.892000,132.553000,144.118000,132.226000,143.533000,131.643000C142.386000,130.494000,142.335000,128.629000,143.413000,127.419000L175.938000,91.066000L144.323000,92.810000C144.323000,92.810000,144.323000,92.810000,144.302000,92.810000C142.945000,92.810000,141.906000,92.129000,141.402000,91.078000C140.868000,89.946000,141.051000,88.613000,141.888000,87.688000L187.912000,36.242000C188.491000,35.603000,189.314000,35.221000,190.184000,35.221000L214.444000,34.993000C215.723000,34.993000,216.870000,35.774000,217.326000,36.936000C217.824000,38.112000,217.518000,39.439000,216.593000,40.313000ZM318.921000,170.890000L287.948000,170.890000L287.948000,156.704000L287.948000,10.814000L287.948000,5.404000L318.921000,5.404000L318.921000,170.890000Z" transform="translate(-179.342000,-179.342500)" fill="rgb(0,0,0)" stroke="rgb(0,0,0)" stroke-width="3" stroke-linecap="square" />
				</g>
			</g>
			<g id="evtf4hk5r8rf6">
				<polygon id="evtf4hk5r8rf7" points="144.106000,91.465000 144.106000,91.417000 144.088000,91.417000" fill="rgb(0,0,0)" stroke="none" stroke-width="1" />
			</g>
		</g>
	</g>
</svg>
